<?xml version="1.0" encoding="utf-8"?>
<!-- Uploaded to: SVG Repo, www.svgrepo.com, Generator: SVG Repo Mixer Tools -->
<svg width="800px" height="800px" viewBox="-0.45 0 67.513 67.513" xmlns="http://www.w3.org/2000/svg">
  <g id="moon" transform="translate(-68.764 -625.086)">
    <g id="Group_13" data-name="Group 13">
      <path id="Path_42" data-name="Path 42" d="M86.5,679.791v.03a4.417,4.417,0,0,0,8.784.668,28.86,28.86,0,0,0,15.532-5.922,4.061,4.061,0,1,0,4.284-4.054,28.909,28.909,0,0,0,5.891-10.958,6.792,6.792,0,0,0,1.522.183,6.66,6.66,0,1,0,0-13.32,6.352,6.352,0,0,0-.883.067,28.97,28.97,0,0,0-16.988-21.4,33.828,33.828,0,1,1-35.88,42.064A28.955,28.955,0,0,0,86.5,679.791Z" fill="#e8d7b8"/>
    </g>
  </g>
</svg>